<?xml version="1.0" standalone="no"?>
<!DOCTYPE svg PUBLIC "-//W3C//DTD SVG 20010904//EN"
 "http://www.w3.org/TR/2001/REC-SVG-20010904/DTD/svg10.dtd">
<svg version="1.0" xmlns="http://www.w3.org/2000/svg"
 width="130.000000pt" height="130.000000pt" viewBox="0 0 130.000000 130.000000"
 preserveAspectRatio="xMidYMid meet">
<metadata>
Created by potrace 1.14, written by Peter Selinger 2001-2017
</metadata>
<g transform="translate(0.000000,130.000000) scale(0.100000,-0.100000)"
fill="#000000" stroke="none">
<path d="M540 1200 c-131 -28 -305 -159 -355 -268 -15 -32 -38 -79 -52 -106
-22 -42 -27 -65 -31 -166 -4 -100 -2 -128 16 -187 40 -130 151 -263 285 -337
206 -116 463 -78 636 92 37 37 80 86 95 108 l27 41 -20 71 c-10 39 -27 86 -36
105 -15 33 -15 36 4 67 l19 33 22 -44 c12 -23 29 -59 36 -78 l14 -36 -5 39
c-5 42 -22 79 -198 416 l-112 215 -55 19 c-63 21 -221 30 -290 16z m450 -287
c25 -53 46 -100 48 -104 2 -5 -18 1 -45 13 -36 17 -73 23 -151 26 -146 6 -179
-5 -272 -93 -88 -84 -136 -119 -150 -110 -19 12 -11 108 14 160 29 63 95 131
150 156 55 24 177 42 316 47 l45 2 45 -97z m-64 -395 c-10 -94 -94 -207 -181
-244 -43 -18 -345 -49 -356 -36 -3 4 -31 62 -62 129 l-55 122 53 -30 c96 -54
245 -73 343 -44 42 13 71 33 149 107 93 87 97 90 106 67 5 -13 6 -45 3 -71z"/>
</g>
</svg>
