<?xml version="1.0" standalone="no"?>
<!DOCTYPE svg PUBLIC "-//W3C//DTD SVG 20010904//EN"
 "http://www.w3.org/TR/2001/REC-SVG-20010904/DTD/svg10.dtd">
<svg version="1.0" xmlns="http://www.w3.org/2000/svg"
 width="700.000000pt" height="700.000000pt" viewBox="0 0 700.000000 700.000000"
 preserveAspectRatio="xMidYMid meet">
<metadata>
Created by potrace 1.14, written by Peter Selinger 2001-2017
</metadata>
<g transform="translate(0.000000,700.000000) scale(0.100000,-0.100000)"
fill="#000000" stroke="none">
<path d="M2757 6414 c-1 -1 -103 -4 -227 -8 -218 -6 -265 -8 -415 -21 -180
-15 -240 -22 -365 -46 -242 -46 -409 -109 -570 -215 -193 -128 -318 -282 -420
-519 -12 -27 -23 -57 -25 -65 -2 -8 -12 -42 -23 -76 -30 -92 -74 -324 -87
-459 -2 -27 -7 -77 -10 -110 -22 -218 -29 -582 -29 -1420 0 -665 6 -1063 19
-1235 8 -122 24 -288 30 -330 2 -14 7 -45 10 -70 4 -25 10 -63 15 -85 5 -22
12 -56 15 -75 12 -69 54 -206 93 -305 71 -178 223 -369 385 -483 51 -36 187
-113 207 -117 3 -1 22 -9 44 -18 106 -46 333 -100 514 -122 23 -3 59 -7 80
-10 33 -4 117 -11 252 -21 340 -25 2174 -25 2505 0 173 14 274 23 325 31 14 2
45 7 70 10 587 77 959 354 1119 832 46 137 83 310 96 452 3 31 7 65 10 76 4
19 13 121 20 230 13 183 19 594 19 1280 0 809 -7 1125 -28 1370 -9 103 -24
227 -30 261 -2 12 -7 39 -10 60 -91 599 -396 957 -936 1097 -52 14 -111 28
-130 31 -19 3 -44 8 -55 10 -11 2 -42 7 -68 10 -27 4 -56 9 -65 11 -15 2 -93
11 -197 20 -36 4 -208 15 -325 21 -82 5 -1808 13 -1813 8z m1220 -1312 c72
-38 115 -106 116 -186 0 -28 -16 -112 -36 -186 -20 -74 -69 -254 -107 -400
-39 -146 -78 -287 -85 -315 -8 -27 -48 -176 -89 -330 -41 -154 -103 -383 -137
-510 -34 -126 -81 -302 -104 -390 -24 -88 -53 -196 -64 -240 -12 -44 -49 -181
-82 -304 -33 -124 -67 -237 -75 -252 -78 -152 -306 -150 -385 2 -33 66 -32
111 10 264 31 112 195 721 241 895 21 80 47 179 58 220 12 41 30 109 41 150
11 41 45 170 76 285 31 116 58 217 60 225 2 8 42 159 90 335 48 176 88 327 90
335 2 8 9 35 16 60 7 25 14 50 15 55 47 183 59 210 105 255 61 58 168 72 246
32z m-1412 -526 c72 -31 126 -109 130 -191 5 -88 -19 -123 -250 -357 -299
-304 -377 -414 -377 -528 0 -115 75 -220 372 -523 113 -115 216 -227 230 -250
31 -52 34 -144 6 -197 -57 -108 -183 -153 -288 -101 -50 24 -376 348 -504 501
-183 218 -254 378 -254 570 0 207 87 387 305 630 82 90 391 403 419 423 35 25
109 45 148 41 15 -2 43 -10 63 -18z m2051 -7 c46 -22 380 -355 500 -499 182
-217 249 -367 253 -560 3 -167 -55 -323 -182 -492 -124 -164 -511 -561 -576
-590 -186 -84 -378 117 -283 297 9 18 112 130 229 249 297 303 374 410 375
523 1 121 -71 221 -401 556 -97 98 -187 196 -200 219 -36 60 -35 148 2 210 32
56 75 88 136 104 55 14 92 9 147 -17z"/>
</g>
</svg>
